<svg width="136" height="45" viewBox="0 0 136 45" fill="none" xmlns="http://www.w3.org/2000/svg">
<path d="M124.359 0.00014625H11.1835C10.771 0.00014625 10.3634 0.00014625 9.95197 0.00239625C9.60756 0.00464625 9.26588 0.0111825 8.91816 0.0166837C8.16273 0.0255733 7.40909 0.092032 6.66377 0.215482C5.9195 0.34162 5.19854 0.579426 4.52528 0.920857C3.85284 1.26518 3.23842 1.71258 2.7043 2.24685C2.16737 2.77961 1.7198 3.39541 1.3788 4.07058C1.03686 4.74439 0.799752 5.46645 0.675675 6.21181C0.550419 6.95623 0.483017 7.70923 0.474075 8.46406C0.463635 8.80899 0.462532 9.15506 0.457031 9.50003V35.5036C0.462532 35.8529 0.463635 36.1913 0.474075 36.5407C0.48302 37.2955 0.550421 38.0485 0.675675 38.7928C0.799409 39.5386 1.03653 40.2611 1.3788 40.9352C1.71965 41.6082 2.16728 42.2215 2.7043 42.7513C3.23639 43.2879 3.85122 43.7356 4.52528 44.0773C5.19853 44.4196 5.91941 44.6589 6.66377 44.787C7.40921 44.9094 8.16278 44.9759 8.91816 44.9859C9.26588 44.9935 9.60756 44.9979 9.95197 44.9979C10.3634 45.0001 10.771 45.0001 11.1835 45.0001H124.359C124.763 45.0001 125.174 45.0001 125.578 44.9979C125.921 44.9979 126.272 44.9935 126.615 44.9859C127.369 44.9764 128.121 44.9099 128.865 44.787C129.612 44.658 130.335 44.4188 131.012 44.0773C131.685 43.7354 132.3 43.2877 132.831 42.7513C133.367 42.2194 133.816 41.6065 134.161 40.9352C134.5 40.2606 134.735 39.5382 134.857 38.7928C134.983 38.0484 135.052 37.2956 135.066 36.5407C135.07 36.1913 135.07 35.8529 135.07 35.5036C135.079 35.0949 135.079 34.6884 135.079 34.273V10.7283C135.079 10.3163 135.079 9.90761 135.07 9.50003C135.07 9.15506 135.07 8.80899 135.066 8.46402C135.052 7.70912 134.983 6.95629 134.857 6.21177C134.735 5.46684 134.5 4.74484 134.161 4.07053C133.466 2.71724 132.365 1.61567 131.012 0.920756C130.335 0.580159 129.612 0.342417 128.865 0.215381C128.122 0.0913869 127.369 0.024905 126.615 0.0165262C126.272 0.0110362 125.921 0.00444375 125.578 0.00225C125.174 0 124.763 0 124.359 0V0.00014625Z" fill="white"/>
<path d="M28.5767 22.3758C28.5893 21.3993 28.8487 20.4419 29.3307 19.5926C29.8127 18.7434 30.5017 18.0298 31.3336 17.5184C30.8052 16.7636 30.108 16.1425 29.2974 15.7043C28.4869 15.2661 27.5854 15.0229 26.6645 14.9941C24.6999 14.7879 22.7954 16.1697 21.7943 16.1697C20.7739 16.1697 19.2326 15.0146 17.5728 15.0487C16.4992 15.0834 15.4529 15.3956 14.5359 15.9549C13.6189 16.5142 12.8623 17.3014 12.34 18.24C10.0775 22.1573 11.7651 27.9143 13.9325 31.0808C15.0168 32.6313 16.2841 34.3632 17.9424 34.3018C19.5651 34.2345 20.1711 33.2671 22.1299 33.2671C24.0704 33.2671 24.639 34.3018 26.3309 34.2628C28.0722 34.2345 29.1692 32.7054 30.2155 31.1402C30.9947 30.0354 31.5942 28.8144 31.9919 27.5223C30.9803 27.0945 30.117 26.3783 29.5097 25.4631C28.9024 24.5479 28.5779 23.4742 28.5767 22.3758Z" fill="#282739"/>
<path d="M25.3801 12.9118C26.3295 11.772 26.7972 10.3071 26.684 8.82812C25.2335 8.98047 23.8937 9.67369 22.9315 10.7697C22.461 11.3051 22.1007 11.928 21.8711 12.6027C21.6415 13.2775 21.5472 13.9909 21.5935 14.7021C22.319 14.7096 23.0367 14.5523 23.6926 14.2422C24.3485 13.9321 24.9255 13.4772 25.3801 12.9118Z" fill="#282739"/>
<path d="M48.0469 30.5326H42.7218L41.443 34.3086H39.1875L44.2313 20.3384H46.5747L51.6185 34.3086H49.3246L48.0469 30.5326ZM43.2733 28.7902H47.4943L45.4135 22.662H45.3552L43.2733 28.7902Z" fill="#282739"/>
<path d="M62.5124 29.2164C62.5124 32.3815 60.8183 34.4151 58.2617 34.4151C57.6141 34.449 56.9701 34.2998 56.4033 33.9846C55.8365 33.6695 55.37 33.2011 55.057 32.6331H55.0087V37.678H52.918V24.1231H54.9417V25.8172H54.9801C55.3074 25.2519 55.7819 24.786 56.353 24.4689C56.924 24.1518 57.5704 23.9955 58.2233 24.0165C60.8084 24.0165 62.5124 26.06 62.5124 29.2164ZM60.3634 29.2164C60.3634 27.1542 59.2978 25.7985 57.6718 25.7985C56.0744 25.7985 54.9999 27.1828 54.9999 29.2164C54.9999 31.2686 56.0744 32.643 57.6718 32.643C59.2978 32.643 60.3634 31.2972 60.3634 29.2164H60.3634Z" fill="#282739"/>
<path d="M73.7238 29.2164C73.7238 32.3815 72.0292 34.4151 69.4727 34.4151C68.8251 34.449 68.181 34.2998 67.6142 33.9846C67.0475 33.6695 66.5809 33.2011 66.268 32.6331H66.2196V37.678H64.1289V24.1231H66.1526V25.8172H66.191C66.5184 25.2519 66.9928 24.786 67.5639 24.4689C68.135 24.1518 68.7813 23.9955 69.4342 24.0165C72.0193 24.0165 73.7238 26.06 73.7238 29.2164ZM71.5744 29.2164C71.5744 27.1542 70.5087 25.7985 68.8827 25.7985C67.2853 25.7985 66.2108 27.1828 66.2108 29.2164C66.2108 31.2686 67.2853 32.643 68.8827 32.643C70.5087 32.643 71.5744 31.2972 71.5744 29.2164Z" fill="#282739"/>
<path d="M81.1324 30.4162C81.2873 31.8016 82.6331 32.7112 84.4722 32.7112C86.2344 32.7112 87.5022 31.8015 87.5022 30.5524C87.5022 29.468 86.7376 28.8188 84.9271 28.3738L83.1165 27.9376C80.5512 27.318 79.3603 26.1183 79.3603 24.1715C79.3603 21.7611 81.4609 20.1055 84.4426 20.1055C87.3957 20.1055 89.4194 21.7611 89.4875 24.1715H87.377C87.2507 22.7773 86.0982 21.9358 84.414 21.9358C82.7298 21.9358 81.5773 22.7872 81.5773 24.0265C81.5773 25.0142 82.3134 25.5953 84.1141 26.0402L85.6532 26.4182C88.5196 27.096 89.7094 28.2474 89.7094 30.2909C89.7094 32.9045 87.6286 34.5415 84.3173 34.5415C81.2191 34.5415 79.1273 32.943 78.9922 30.4161L81.1324 30.4162Z" fill="#282739"/>
<path d="M94.2222 21.7129V24.1233H96.1591V25.7789H94.2222V31.394C94.2222 32.2664 94.61 32.6729 95.4614 32.6729C95.6914 32.6688 95.9209 32.6527 96.1492 32.6245V34.2702C95.7664 34.3418 95.3773 34.3742 94.9879 34.3669C92.9258 34.3669 92.1216 33.5924 92.1216 31.617V25.7789H90.6406V24.1233H92.1216V21.7129H94.2222Z" fill="#282739"/>
<path d="M97.2812 29.2165C97.2812 26.0118 99.1687 23.998 102.112 23.998C105.065 23.998 106.944 26.0118 106.944 29.2165C106.944 32.4301 105.075 34.4351 102.112 34.4351C99.15 34.4351 97.2812 32.43 97.2812 29.2165ZM104.813 29.2165C104.813 27.0182 103.806 25.7207 102.112 25.7207C100.418 25.7207 99.4104 27.0281 99.4104 29.2165C99.4104 31.4237 100.418 32.7113 102.112 32.7113C103.806 32.7113 104.813 31.4237 104.813 29.2165H104.813Z" fill="#282739"/>
<path d="M108.664 24.123H110.658V25.8566H110.706C110.841 25.3152 111.159 24.8367 111.605 24.5016C112.051 24.1664 112.599 23.9951 113.156 24.0164C113.397 24.0156 113.638 24.0417 113.873 24.0944V26.05C113.569 25.957 113.251 25.9144 112.933 25.9237C112.63 25.9113 112.327 25.9649 112.046 26.0806C111.765 26.1964 111.512 26.3716 111.305 26.5942C111.098 26.8168 110.942 27.0816 110.847 27.3704C110.752 27.6591 110.72 27.965 110.755 28.267V34.3084H108.664L108.664 24.123Z" fill="#282739"/>
<path d="M123.512 31.3171C123.231 33.1661 121.43 34.4351 119.126 34.4351C116.163 34.4351 114.324 32.4498 114.324 29.2649C114.324 26.0701 116.173 23.998 119.038 23.998C121.856 23.998 123.629 25.9338 123.629 29.0221V29.7384H116.435V29.8647C116.401 30.2396 116.448 30.6172 116.572 30.9725C116.696 31.3279 116.894 31.6527 117.154 31.9256C117.413 32.1985 117.727 32.4131 118.075 32.5552C118.424 32.6973 118.799 32.7636 119.175 32.7498C119.669 32.796 120.165 32.6816 120.588 32.4235C121.012 32.1654 121.341 31.7773 121.527 31.3171L123.512 31.3171ZM116.445 28.2772H121.537C121.555 27.9402 121.504 27.6029 121.387 27.2865C121.269 26.9702 121.087 26.6816 120.852 26.4388C120.618 26.1961 120.336 26.0045 120.023 25.876C119.711 25.7475 119.376 25.6849 119.038 25.6921C118.698 25.6901 118.36 25.7555 118.045 25.8846C117.73 26.0137 117.444 26.2039 117.203 26.4442C116.962 26.6846 116.771 26.9703 116.64 27.2849C116.51 27.5995 116.444 27.9368 116.445 28.2772V28.2772Z" fill="#282739"/>
</svg>
