<svg width="16" height="17" viewBox="0 0 16 17" fill="none" xmlns="http://www.w3.org/2000/svg">
<path fill-rule="evenodd" clip-rule="evenodd" d="M0.410156 7.57878C0.410156 11.3487 3.48465 14.4232 7.29118 14.4232C7.75839 14.4232 8.2256 14.3823 8.76243 14.3353C9.36108 14.2829 10.0463 14.2229 10.9147 14.2036C12.2323 14.2036 13.6598 14.6794 15.2336 16.0702C15.38 16.2167 15.5996 16.0336 15.4532 15.8506C13.8794 13.9108 12.4519 13.5448 11.0245 13.2154C9.26764 12.8127 8.35261 11.8611 7.73039 10.7631C7.62059 10.5435 7.54739 10.5801 7.54739 10.8729C7.51078 11.3121 7.54739 11.7147 7.62059 12.1173H7.40098C4.9121 12.1173 2.86244 10.0677 2.86244 7.57878C2.86244 5.0899 4.9121 3.04023 7.40098 3.04023C9.88986 3.04023 11.9395 5.0899 11.9395 7.57878C11.9395 7.72518 11.9395 7.90819 11.9029 8.09119C11.5369 8.01799 10.9147 8.01799 10.4389 8.05459C10.2559 8.05459 10.2559 8.12779 10.4023 8.16439C11.8663 8.4572 12.8912 9.37223 13.1474 11.0559C13.1474 11.1291 13.184 11.1291 13.2206 11.0925C13.8062 10.0677 14.1722 8.85982 14.1722 7.57878C14.1722 3.77225 11.0977 0.697754 7.29118 0.697754C3.48465 0.697754 0.410156 3.80885 0.410156 7.57878ZM12.2689 10.3971C12.5251 10.507 12.6349 10.873 12.6349 11.056C12.6715 11.3488 12.5983 11.4952 12.4885 11.4952C12.3787 11.4952 12.2323 11.3854 12.0859 11.1292C11.9395 10.873 11.8663 10.6168 11.9395 10.4704C12.0493 10.3972 12.1591 10.3605 12.2689 10.3971ZM10.7683 11.5319C10.9147 11.5319 11.0977 11.6051 11.2807 11.7515C11.5735 12.0077 11.6833 12.3005 11.5369 12.5201C11.4637 12.6299 11.2807 12.7031 11.1343 12.7031C10.9513 12.7031 10.7683 12.6299 10.6585 12.5201C10.3657 12.2639 10.2925 11.8979 10.4755 11.6783C10.5121 11.6051 10.6219 11.5319 10.7683 11.5319Z" fill="#F28A1A"/>
</svg>
