<svg width="20" height="16" viewBox="0 0 20 16" fill="none" xmlns="http://www.w3.org/2000/svg">
<path d="M0.436161 12.8949C0.844494 14.3433 2.09366 14.6083 2.17699 14.6591C4.23283 15.2191 15.7562 15.2208 17.8428 14.6591C19.272 14.2458 19.5345 12.9783 19.5837 12.8949C20.1278 9.99992 20.1637 6.22575 19.5587 2.94075L19.5837 3.10409C19.1753 1.65575 17.9262 1.39075 17.8428 1.33992C15.8145 0.789086 4.26116 0.768252 2.17699 1.33992C0.747827 1.75409 0.485327 3.02075 0.436161 3.10409C-0.146339 6.14659 -0.175506 9.63742 0.436161 12.8949ZM8.00783 11.0424V4.96492L13.2295 8.00825L8.00783 11.0424Z" fill="#E53935"/>
</svg>
